HIERARCHY
ROOT Hips
{
	OFFSET 0.000000 0.000000 0.000000
	CHANNELS 6 Xposition Yposition Zposition Xrotation Yrotation Zrotation
	JOINT LeftUpLeg_virtual
	{
		OFFSET 0.000000 0.000000 0.000000
		CHANNELS 3 Xrotation Yrotation Zrotation
		JOINT LeftUpLeg
		{
			OFFSET 11.394100 -6.187798 -0.413800
			CHANNELS 3 Xrotation Yrotation Zrotation
			JOINT LeftLeg
			{
				OFFSET 0.430247 -32.302673 3.732800
				CHANNELS 3 Xrotation Yrotation Zrotation
				JOINT LeftFoot
				{
					OFFSET -0.430247 -48.264931 -6.423300
					CHANNELS 3 Xrotation Yrotation Zrotation
					JOINT LeftToeBase
					{
						OFFSET 4.230900 -16.068199 23.438400
						CHANNELS 3 Xrotation Yrotation Zrotation
						JOINT LeftToe_End
						{
							OFFSET 4.510700 0.695400 19.974600
							CHANNELS 3 Xrotation Yrotation Zrotation
							End Site
							{
								OFFSET 0 0 0
							}
						}
					}
				}
			}
		}
	}
	JOINT RightUpLeg_virtual
	{
		OFFSET 0.000000 0.000000 0.000000
		CHANNELS 3 Xrotation Yrotation Zrotation
		JOINT RightUpLeg
		{
			OFFSET -11.333700 -6.187798 -0.413800
			CHANNELS 3 Xrotation Yrotation Zrotation
			JOINT RightLeg
			{
				OFFSET -0.430392 -32.302628 3.733000
				CHANNELS 3 Xrotation Yrotation Zrotation
				JOINT RightFoot
				{
					OFFSET 0.430392 -48.264973 -6.423500
					CHANNELS 3 Xrotation Yrotation Zrotation
					JOINT RightToeBase
					{
						OFFSET -4.230900 -16.068199 23.438400
						CHANNELS 3 Xrotation Yrotation Zrotation
						JOINT RightToe_End
						{
							OFFSET -4.510700 0.695400 19.974600
							CHANNELS 3 Xrotation Yrotation Zrotation
							End Site
							{
								OFFSET 0 0 0
							}
						}
					}
				}
			}
		}
	}
	JOINT Spine_virtual
	{
		OFFSET 0.000000 0.000000 0.000000
		CHANNELS 3 Xrotation Yrotation Zrotation
		JOINT Spine
		{
			OFFSET -0.002400 12.777504 0.315300
			CHANNELS 3 Xrotation Yrotation Zrotation
			JOINT Spine1
			{
				OFFSET -0.002067 5.816869 0.032633
				CHANNELS 3 Xrotation Yrotation Zrotation
				JOINT Spine1_split
				{
					OFFSET -0.002067 5.816869 0.032633
					CHANNELS 3 Xrotation Yrotation Zrotation
					JOINT Spine2
					{
						OFFSET -0.002067 5.816869 0.032633
						CHANNELS 3 Xrotation Yrotation Zrotation
						JOINT Neck_virtual
						{
							OFFSET 0.000000 0.000000 0.000000
							CHANNELS 3 Xrotation Yrotation Zrotation
							JOINT Neck
							{
								OFFSET -0.003700 21.199493 -0.826900
								CHANNELS 3 Xrotation Yrotation Zrotation
								JOINT Head
								{
									OFFSET 0.000000 20.442200 4.834800
									CHANNELS 3 Xrotation Yrotation Zrotation
									JOINT HeadTop_End
									{
										OFFSET 0.000000 34.668396 4.968400
										CHANNELS 3 Xrotation Yrotation Zrotation
										End Site
										{
											OFFSET 0 0 0
										}
									}
								}
							}
						}
						JOINT LeftShoulder_virtual
						{
							OFFSET 0.000000 0.000000 0.000000
							CHANNELS 3 Xrotation Yrotation Zrotation
							JOINT LeftShoulder
							{
								OFFSET 3.288150 8.794197 -1.372250
								CHANNELS 3 Xrotation Yrotation Zrotation
								JOINT LeftShoulder_split
								{
									OFFSET 3.288150 8.794197 -1.372250
									CHANNELS 3 Xrotation Yrotation Zrotation
									JOINT LeftArm
									{
										OFFSET 11.953299 -2.279007 -0.146200
										CHANNELS 3 Xrotation Yrotation Zrotation
										JOINT LeftForeArm
										{
											OFFSET 18.448900 0.000000 0.000000
											CHANNELS 3 Xrotation Yrotation Zrotation
											JOINT LeftHand
											{
												OFFSET 29.527798 0.000000 0.000000
												CHANNELS 3 Xrotation Yrotation Zrotation
												End Site
												{
													OFFSET 0 0 0
												}
											}
										}
									}
								}
							}
						}
						JOINT RightShoulder_virtual
						{
							OFFSET 0.000000 0.000000 0.000000
							CHANNELS 3 Xrotation Yrotation Zrotation
							JOINT RightShoulder
							{
								OFFSET -3.249400 8.794197 -1.372250
								CHANNELS 3 Xrotation Yrotation Zrotation
								JOINT RightShoulder_split
								{
									OFFSET -3.249400 8.794197 -1.372250
									CHANNELS 3 Xrotation Yrotation Zrotation
									JOINT RightArm
									{
										OFFSET -11.953299 -2.279007 -0.146200
										CHANNELS 3 Xrotation Yrotation Zrotation
										JOINT RightForeArm
										{
											OFFSET -18.448900 0.000000 0.000000
											CHANNELS 3 Xrotation Yrotation Zrotation
											JOINT RightHand
											{
												OFFSET -29.527802 0.000000 0.000000
												CHANNELS 3 Xrotation Yrotation Zrotation
												End Site
												{
													OFFSET 0 0 0
												}
											}
										}
									}
								}
							}
						}
					}
				}
			}
		}
	}
}
MOTION
Frames: 4
Frame Time: 0.03333333
193.539932 48.393818 -33.281506 0.000000 0.000000 0.000000 -130.043564 -17.981112 49.795060 -81.986982 -2.023585 5.454606 110.949094 -7.567552 -1.028821 6.353405 1.022194 7.748681 8.579357 -2.335956 4.210114 0.000000 0.000000 0.000000 -131.605000 -22.465880 46.856348 -103.127162 11.502062 18.706901 60.215822 1.417271 0.434350 5.819895 7.046721 4.381810 -13.272360 0.107795 0.188578 0.000000 0.000000 0.000000 -137.682175 -20.435946 61.374536 8.841752 5.961248 6.192165 23.347146 4.389267 2.058271 -0.915987 1.296472 1.771638 0.000000 0.000000 0.000000 20.254627 4.916200 1.297633 53.204967 -3.843951 -9.925534 -22.599779 -16.126541 12.353609 0.000000 0.000000 0.000000 21.122442 6.463664 2.059506 2.550924 1.070342 5.003644 9.305485 -5.146711 0.860479 -32.626506 -21.041936 -6.739915 176.566565 -41.035947 179.611449 0.000000 0.000000 0.000000 18.164101 4.867892 2.629553 -1.251598 -3.822514 -1.300843 12.753187 -3.809395 7.060297 -77.226586 2.489906 46.333080 -164.583271 61.968087 159.123887 0.000000 0.000000 0.000000 
200.773300 43.152100 -34.526981 0.000000 0.000000 0.000000 -132.513320 -4.816888 61.147125 -80.588104 9.771018 10.851271 107.285927 -1.249546 -2.717931 1.666380 6.734497 9.756898 8.886729 -2.865364 3.922043 0.000000 0.000000 0.000000 -132.785025 -10.918693 54.119513 -104.859735 11.218748 17.432878 66.802795 0.597742 2.083377 -0.617130 8.260596 8.763025 -13.573018 0.992659 -1.955067 0.000000 0.000000 0.000000 -139.438968 -10.954467 70.807765 9.752873 3.637746 5.326469 22.610083 4.751141 2.675462 -0.464227 -0.140083 2.020885 0.000000 0.000000 0.000000 19.298952 5.454987 1.983611 51.832888 -3.359954 -12.035396 -18.807088 -12.950477 13.618882 0.000000 0.000000 0.000000 21.066639 6.424420 2.524750 1.872558 3.194405 2.954377 9.361704 -4.943762 -0.662989 -20.397930 -24.735872 -10.818190 174.129198 -45.889186 177.641773 0.000000 0.000000 0.000000 17.678929 5.185465 3.654498 -1.895042 -4.912629 -3.292116 12.118400 0.908946 5.167806 -61.761166 -3.772529 43.986985 -155.211486 73.273996 150.448468 0.000000 0.000000 0.000000 
207.990662 38.217815 -35.679676 0.000000 0.000000 0.000000 -137.507076 6.266858 74.939265 -82.234077 25.293475 17.988065 104.219425 6.820215 -4.111592 -2.878677 11.463705 13.390228 7.503474 -3.285740 3.980042 0.000000 0.000000 0.000000 -135.162573 -0.180336 62.942242 -104.151547 9.782415 14.891588 71.328021 -0.410236 4.017595 -7.209383 7.304769 12.958806 -14.344565 1.405631 -4.495715 0.000000 0.000000 0.000000 -142.799339 -2.269656 81.616348 10.866525 1.722230 4.022668 21.571109 5.114538 3.022613 -0.304394 -1.369566 1.974942 0.000000 0.000000 0.000000 18.920097 5.924518 2.473338 49.390792 -2.394814 -12.630879 -16.868477 -11.293084 14.741703 0.000000 0.000000 0.000000 21.199616 6.429619 2.810806 1.276489 3.890698 -0.001991 9.275665 -2.976591 -0.137488 -12.289730 -26.163617 -13.721497 171.738700 -52.796249 174.652213 0.000000 0.000000 0.000000 17.374130 5.514131 4.534866 -2.370047 -4.288492 -4.189848 11.190170 6.076102 3.693447 -48.258387 -4.934997 42.350127 -66.442864 83.336702 62.583357 0.000000 0.000000 0.000000 
215.063889 34.316055 -36.533764 0.000000 0.000000 0.000000 -144.149845 14.746872 90.009906 -87.439378 39.226808 25.312741 103.495760 14.036528 -5.076421 -5.890201 13.617227 17.921406 4.276005 -3.635626 4.630973 0.000000 0.000000 0.000000 -138.717385 8.766628 72.625449 -100.631376 8.219718 11.857418 73.513948 -1.937202 6.134059 -12.929829 4.487425 14.896315 -14.634623 1.193202 -6.109222 0.000000 0.000000 0.000000 -147.805499 5.443970 94.079490 12.048336 0.599878 2.448031 20.393147 5.522720 3.041033 -0.576353 -1.922041 1.656562 0.000000 0.000000 0.000000 19.087583 6.406522 2.639952 45.730452 -0.688866 -11.104823 -17.465157 -11.168315 15.902301 0.000000 0.000000 0.000000 21.358737 6.635814 2.844374 0.743517 3.148694 -2.951813 8.498803 -1.170172 1.754733 -6.771309 -25.426665 -15.676659 169.108053 -60.702241 170.563730 0.000000 0.000000 0.000000 17.110240 5.850154 5.098989 -2.731668 -2.846453 -4.131299 11.039744 10.606519 2.145427 -38.264304 -2.967290 39.959629 -11.450064 67.079862 8.674236 0.000000 0.000000 0.000000 
